:SAMPLES-PER-SECOND 30
:FULLY-SPECIFIED
:DEGREES
156
root  -0.42394 35.3825 -16.6578 11.1494 -26.299 -8.26763
RightUpLeg  -53.4663 -1.33522 5.35837
RightLeg  39.9619 2.4236 1.93723
RightFoot  -17.0305 0.814364 18.6707
RightToes  -5.82094e-011 -1.98785e-016 -5.10186e-018
Spine  23.829 -8.47841 -23.8102
Spine1  -5.95271 -19.0299 39.7604
HEad  -37.3878 41.7175 -29.8903
LeftShoulder1  1.3528 -14.9485 1.29365
LeftArm  -36.3409 -48.6908 -43.6477
LeftForeArm  74.7566 -46.3094 -6.96799
LeftHand  0.0368572 -3.22841 -0.247614
RightShoulder  1.15096 0.294381 24.2799
RightArm  0.892065 -47.1575 19.9039
RightForeArm  -6.40163 29.2106 6.68044
RightHand  -1.88118 5.45962 -20.2206
LeftUpLeg  22.1237 7.43631 2.31393
LeftLeg  12.2287 5.82134 1.12732
LeftFoot  -27.7996 -1.02019 -8.23046
LeftToes  -8.4584e-011 5.90861e-011 8.40072e-012
157
root  -1.26594 35.1724 -14.325 11.2781 -22.9202 -10.2012
RightUpLeg  -53.6194 3.08842 2.79865
RightLeg  33.1688 4.39644 2.91905
RightFoot  -18.4452 0.930299 16.9445
RightToes  -5.82094e-011 -1.98785e-016 -5.10186e-018
Spine  26.5273 -9.24768 -22.4038
Spine1  -6.23125 -20.2307 41.9894
HEad  -40.731 41.3239 -31.6155
LeftShoulder1  1.06767 -15.7474 3.318
LeftArm  -32.633 -50.3485 -44.4668
LeftForeArm  72.2715 -38.7033 -4.95967
LeftHand  -0.0179564 -1.86582 0.429286
RightShoulder  1.2246 0.592154 23.836
RightArm  -2.66782 -47.8326 20.1523
RightForeArm  -6.20951 30.3572 6.95989
RightHand  -1.68544 5.30058 -18.4411
LeftUpLeg  27.3268 6.60372 6.10763
LeftLeg  9.67285 4.2928 0.622774
LeftFoot  -21.6209 -0.888177 -11.3168
LeftToes  -8.4584e-011 5.90861e-011 8.40072e-012
158
root  -2.22355 34.7265 -11.7613 11.098 -18.188 -10.9139
RightUpLeg  -53.521 6.71255 -2.24693
RightLeg  33.8483 0.836778 0.267206
RightFoot  -19.3408 0.960585 15.4493
RightToes  -5.82094e-011 -1.98785e-016 -5.10186e-018
Spine  28.4591 -10.5765 -21.3782
Spine1  -6.93665 -21.4955 44.7461
HEad  -43.1176 40.9063 -33.3353
LeftShoulder1  0.960557 -16.3346 4.12042
LeftArm  -27.6341 -51.1153 -47.8209
LeftForeArm  70.5604 -32.2839 -3.54014
LeftHand  -0.0244586 -1.05844 0.596414
RightShoulder  1.3803 1.09333 23.9455
RightArm  -7.61816 -46.2778 20.3352
RightForeArm  -5.35594 30.8528 7.04172
RightHand  -1.5492 5.39797 -16.8549
LeftUpLeg  29.4888 6.11401 10.0361
LeftLeg  12.2691 3.1129 1.08766
LeftFoot  -14.2268 -0.260164 -13.7558
LeftToes  -8.4584e-011 5.90861e-011 8.40072e-012
159
root  -3.12245 34.2081 -9.1432 10.9936 -14.6024 -10.8995
RightUpLeg  -52.4681 8.11778 -5.3178
RightLeg  39.5298 -4.9394 -4.64973
RightFoot  -19.1437 1.17739 19.138
RightToes  -5.82094e-011 -1.98785e-016 -5.10186e-018
Spine  29.3112 -11.1081 -19.8829
Spine1  -8.28171 -21.4309 46.5647
HEad  -43.3223 39.8622 -33.9671
LeftShoulder1  1.33838 -17.0357 2.24782
LeftArm  -20.1364 -50.3033 -54.6353
LeftForeArm  68.4867 -26.6956 -2.4455
LeftHand  -0.0827738 0.17857 1.78113
RightShoulder  1.51698 1.51824 24.1616
RightArm  -8.56126 -42.384 18.8195
RightForeArm  -6.07853 29.8975 6.83925
RightHand  -1.66348 5.90328 -17.2926
LeftUpLeg  27.2012 4.74748 11.042
LeftLeg  22.0618 9.02245 4.67066
LeftFoot  -4.43198 0.863342 -14.0595
LeftToes  -8.4584e-011 5.90861e-011 8.40072e-012
160
root  -3.75507 33.4687 -6.77084 11.0255 -14.552 -12.3473
RightUpLeg  -52.5213 8.53908 -3.70813
RightLeg  46.8571 -5.46306 -6.44672
RightFoot  -16.5333 0.845779 20.8189
RightToes  -5.82094e-011 -1.98785e-016 -5.10186e-018
Spine  31.2584 -10.0097 -15.1042
Spine1  -11.2669 -17.9049 45.9539
HEad  -42.5174 38.7372 -34.7037
LeftShoulder1  2.30168 -17.5955 -2.81026
LeftArm  -13.7496 -45.972 -62.8903
LeftForeArm  66.7683 -23.6893 -1.93296
LeftHand  -0.0921093 0.654381 2.35869
RightShoulder  1.81755 2.56575 23.7857
RightArm  -7.20121 -35.5535 16.4171
RightForeArm  -6.44461 26.6753 6.04535
RightHand  -1.78385 6.83433 -17.1314
LeftUpLeg  21.3011 6.38542 11.4624
LeftLeg  39.1731 14.4952 12.5791
LeftFoot  4.96656 1.47851 -10.8412
LeftToes  -8.4584e-011 5.90861e-011 8.40072e-012
161
root  -4.05566 32.7229 -4.5484 10.9993 -16.576 -16.172
RightUpLeg  -50.6125 9.23428 0.875156
RightLeg  51.5643 -2.95502 -4.36751
RightFoot  -15.8739 0.71139 20.4532
RightToes  -5.82094e-011 -1.98785e-016 -5.10186e-018
Spine  32.8835 -9.31322 -5.2672
Spine1  -11.6481 -13.7868 39.0676
HEad  -44.3311 36.723 -35.9957
LeftShoulder1  3.41189 -16.423 -9.76192
LeftArm  -5.60617 -39.0432 -66.5414
LeftForeArm  60.6824 -23.0047 -2.04052
LeftHand  -0.130597 3.03068 5.61732
RightShoulder  2.46712 4.49371 24.7849
RightArm  -4.76744 -24.4258 13.9633
RightForeArm  -8.03735 22.467 5.35602
RightHand  -1.99951 7.34047 -18.4053
LeftUpLeg  12.4372 8.33132 11.8106
LeftLeg  58.0244 8.20912 13.202
LeftFoot  6.8559 0.707821 -3.97695
LeftToes  -8.4584e-011 5.90861e-011 8.40072e-012
162
root  -4.45784 32.1508 -1.92569 11.4379 -16.7629 -18.292
RightUpLeg  -48.3775 8.80859 3.13759
RightLeg  56.9412 -1.65368 -3.19143
RightFoot  -19.6708 1.41292 21.0368
RightToes  -5.82094e-011 -1.98785e-016 -5.10186e-018
Spine  32.0856 -9.61754 4.17225
Spine1  -11.6664 -10.5138 30.3615
HEad  -44.3695 33.8203 -36.3043
LeftShoulder1  4.49199 -15.0756 -17.5281
LeftArm  -0.846348 -28.8382 -65.5434
LeftForeArm  55.2543 -21.8699 -2.27158
LeftHand  -0.120375 4.23288 11.028
RightShoulder  3.0475 6.36482 24.7877
RightArm  -4.7255 -11.9643 12.1871
RightForeArm  -4.45918 18.1963 5.76561
RightHand  -2.19392 7.74565 -19.5471
LeftUpLeg  -0.586792 7.81133 9.69209
LeftLeg  75.3405 0.599409 6.4581
LeftFoot  -3.92688 -0.123645 1.55379
LeftToes  -8.4584e-011 5.90861e-011 8.40072e-012
163
root  -4.86248 31.8422 0.589106 10.2427 -15.8929 -19.0169
RightUpLeg  -43.6874 7.43084 4.28416
RightLeg  60.6895 -0.879626 -2.22969
RightFoot  -24.6467 2.25761 20.6527
RightToes  -5.82094e-011 -1.98785e-016 -5.10186e-018
Spine  31.4107 -9.47956 11.9008
Spine1  -11.1851 -7.63453 21.9401
HEad  -42.0496 30.1794 -34.05
LeftShoulder1  4.86768 -13.14 -22.9646
LeftArm  -3.28743 -16.8512 -62.6306
LeftForeArm  49.6264 -18.6875 -3.40457
LeftHand  0.0067395 5.58596 15.3505
RightShoulder  3.4158 7.75845 24.2125
RightArm  -11.606 -0.390071 10.1323
RightForeArm  5.47711 14.9299 7.22037
RightHand  -2.39994 8.59094 -20.0442
LeftUpLeg  -14.7727 6.37803 7.94068
LeftLeg  89.2178 -0.452749 13.7248
LeftFoot  -9.58441 0.0266961 1.98217
LeftToes  -8.4584e-011 5.90861e-011 8.40072e-012
164
root  -5.44841 31.653 3.35798 6.99979 -14.0782 -18.203
RightUpLeg  -35.782 5.54645 4.26123
RightLeg  63.3017 -0.638067 -1.96373
RightFoot  -30.5544 3.18367 19.8384
RightToes  -5.82094e-011 -1.98785e-016 -5.10186e-018
Spine  30.3544 -8.80057 17.3422
Spine1  -11.0319 -4.73156 13.7505
HEad  -36.5254 25.8565 -29.3944
LeftShoulder1  4.32659 -10.1803 -25.4771
LeftArm  -16.8766 -3.86275 -58.0048
LeftForeArm  51.2518 -14.5694 -5.27776
LeftHand  0.0671739 6.43623 10.3894
RightShoulder  3.39715 8.54293 21.9366
RightArm  -17.8881 7.82109 8.7548
RightForeArm  12.2207 13.7553 7.41094
RightHand  -2.83821 9.61924 -22.0325
LeftUpLeg  -27.5435 3.92402 6.69392
LeftLeg  95.4894 -2.22363 14.7912
LeftFoot  -14.3562 0.142935 2.24421
LeftToes  -8.4584e-011 5.90861e-011 8.40072e-012
165
root  -6.10917 31.6413 6.47453 2.58237 -11.5797 -15.7076
RightUpLeg  -24.8832 2.75623 2.38197
RightLeg  63.7735 -0.531239 -1.77261
RightFoot  -36.6349 4.3347 20.2447
RightToes  -5.82094e-011 -1.98785e-016 -5.10186e-018
Spine  29.0234 -7.43462 21.0613
Spine1  -12.0769 -1.60684 5.04817
HEad  -28.4475 19.9792 -23.7912
LeftShoulder1  3.04116 -6.18799 -25.1396
LeftArm  -24.4003 8.52598 -49.3147
LeftForeArm  45.965 -14.1154 -5.21869
LeftHand  0.194856 8.89742 7.6069
RightShoulder  3.00622 8.53469 18.4429
RightArm  -15.3804 10.7226 7.99014
RightForeArm  9.9471 17.6868 5.38353
RightHand  -3.06224 10.0115 -23.1244
LeftUpLeg  -37.6952 1.69378 4.65283
LeftLeg  93.6135 -1.61227 13.1965
LeftFoot  -16.8433 0.177472 1.61474
LeftToes  -8.4584e-011 5.90861e-011 8.40072e-012
166
root  -6.81812 31.972 9.97118 -2.72008 -6.78671 -11.3792
RightUpLeg  -10.3723 -1.3804 -1.96972
RightLeg  60.5306 -0.833954 -2.1234
RightFoot  -40.5908 5.37022 21.4008
RightToes  -5.82094e-011 -1.98785e-016 -5.10186e-018
Spine  27.5193 -5.21949 21.4577
Spine1  -13.7669 0.951644 -3.10275
HEad  -17.9711 11.5744 -17.7391
LeftShoulder1  1.75243 -2.8832 -20.9017
LeftArm  -27.7334 16.6682 -38.396
LeftForeArm  33.4722 -17.4558 -4.02507
LeftHand  0.356319 11.6541 7.251
RightShoulder  2.53975 7.94601 15.4431
RightArm  -12.1461 9.02097 6.46975
RightForeArm  10.2958 23.5069 4.35734
RightHand  -2.93786 10.0109 -22.195
LeftUpLeg  -43.8625 -0.639676 0.29479
LeftLeg  84.1124 0.32579 9.75622
LeftFoot  -18.671 0.160323 0.736642
LeftToes  -8.4584e-011 5.90861e-011 8.40072e-012
